<mxfile host="Electron" modified="2023-05-12T02:52:27.497Z" agent="Mozilla/5.0 (Windows NT 10.0; Win64; x64) AppleWebKit/537.36 (KHTML, like Gecko) draw.io/21.2.1 Chrome/112.0.5615.87 Electron/24.1.2 Safari/537.36" etag="FrCl-9llGzP-Vmqs3xQw" version="21.2.1" type="device">
  <diagram name="Stránka-1" id="Uwwx4R1GLsoYazAPKuDZ">
    <mxGraphModel dx="1151" dy="673" grid="1" gridSize="10" guides="1" tooltips="1" connect="1" arrows="1" fold="1" page="1" pageScale="1" pageWidth="827" pageHeight="1169" math="0" shadow="0">
      <root>
        <mxCell id="0" />
        <mxCell id="1" style="" parent="0" visible="0" />
        <mxCell id="5Z7DFRyPFiuUS3gGfPdI-1" value="&lt;div&gt;%PDF-1.7&lt;/div&gt;&lt;div&gt;%µµµµ&lt;/div&gt;&lt;div&gt;1 0 obj&lt;/div&gt;&lt;div&gt;&amp;nbsp; &amp;nbsp;&amp;lt;&amp;lt; /Type /Catalog&lt;/div&gt;&lt;div&gt;&amp;nbsp; &amp;nbsp; &amp;nbsp; /Pages 2 0 R&lt;/div&gt;&lt;div&gt;&amp;nbsp; &amp;nbsp; &amp;nbsp; /Lang (cs-CZ)&lt;/div&gt;&lt;div&gt;&amp;nbsp; &amp;nbsp; &amp;nbsp; /Metadata 22 0 R&lt;/div&gt;&lt;div&gt;&amp;nbsp; &amp;nbsp; &amp;nbsp; ...&lt;/div&gt;&lt;div&gt;&lt;span style=&quot;background-color: initial;&quot;&gt;&amp;nbsp; &amp;nbsp;&amp;gt;&amp;gt;&lt;/span&gt;&lt;/div&gt;&lt;div&gt;endobj&lt;/div&gt;&lt;div&gt;&lt;div style=&quot;border-color: var(--border-color);&quot;&gt;2 0 obj&lt;/div&gt;&lt;div style=&quot;border-color: var(--border-color);&quot;&gt;&amp;nbsp; &amp;nbsp;&amp;lt;&amp;lt; /Type /Pages&lt;/div&gt;&lt;div style=&quot;border-color: var(--border-color);&quot;&gt;&amp;nbsp; &amp;nbsp; &amp;nbsp; /Count 1&lt;/div&gt;&lt;div style=&quot;border-color: var(--border-color);&quot;&gt;&amp;nbsp; &amp;nbsp; &amp;nbsp; /Kids [ 3 0 R]&lt;/div&gt;&lt;div style=&quot;border-color: var(--border-color);&quot;&gt;&amp;nbsp; &amp;nbsp;&amp;gt;&amp;gt;&lt;/div&gt;&lt;div style=&quot;border-color: var(--border-color);&quot;&gt;endobj&lt;/div&gt;&lt;/div&gt;&lt;div&gt;3 0 obj&lt;/div&gt;&lt;div&gt;&amp;nbsp; &amp;nbsp;&amp;lt;&amp;lt; /Type /Page&lt;/div&gt;&lt;div&gt;&amp;nbsp; &amp;nbsp; &amp;nbsp; /Parent 2 0 R&lt;/div&gt;&lt;div&gt;&amp;nbsp; &amp;nbsp; &amp;nbsp; /Resources &amp;lt;&amp;lt; /Font &amp;lt;&amp;lt; /F1 5 0 R &amp;gt;&amp;gt;&lt;/div&gt;&lt;div&gt;&amp;nbsp; &amp;nbsp; &amp;nbsp; &amp;nbsp; &amp;nbsp; &amp;nbsp; &amp;nbsp; &amp;nbsp; &amp;nbsp; &amp;nbsp; /ExtGState &amp;lt;&amp;lt; /GS7 7 0 R /GS8 8 0 R &amp;gt;&amp;gt;&lt;/div&gt;&lt;div&gt;&amp;nbsp; &amp;nbsp; &amp;nbsp; &amp;nbsp; &amp;nbsp; &amp;nbsp; &amp;nbsp; &amp;nbsp; &amp;nbsp; &amp;nbsp; /ProcSet [ /PDF /Text /ImageB /ImageC /ImageI]&lt;/div&gt;&lt;div&gt;&amp;nbsp; &amp;nbsp; &amp;nbsp; &amp;nbsp; &amp;nbsp; &amp;nbsp; &amp;nbsp; &amp;nbsp; &amp;nbsp;&amp;gt;&amp;gt;&lt;/div&gt;&lt;div&gt;&amp;nbsp; &amp;nbsp; &amp;nbsp; /MediaBox [ 0 0 595.32 841.92]&lt;/div&gt;&lt;div&gt;&amp;nbsp; &amp;nbsp; &amp;nbsp; /Contents 4 0 R&lt;/div&gt;&lt;div&gt;&amp;nbsp; &amp;nbsp; &amp;nbsp; ...&lt;/div&gt;&lt;div&gt;&amp;gt;&amp;gt;&lt;/div&gt;&lt;div&gt;endobj&lt;/div&gt;&lt;div&gt;&lt;div&gt;4 0 obj&lt;/div&gt;&lt;div&gt;&amp;nbsp; &amp;nbsp;&amp;lt;&amp;lt; /Filter /FlateDecode&lt;/div&gt;&lt;div&gt;&amp;nbsp; &amp;nbsp; &amp;nbsp; /Length 137&lt;/div&gt;&lt;div&gt;&amp;nbsp; &amp;nbsp;&amp;gt;&amp;gt;&lt;/div&gt;&lt;div&gt;stream&lt;/div&gt;&lt;div&gt;xś-Ś1&lt;/div&gt;&lt;div&gt;Â0÷ ď?|Ł:$/1mR(šÖ˘PPpGí¤ ţ0o;8úşÖcÜw¦AŰEĽDÉBŢ@PT…ÚZgTeńľ1ť7x2µ‰IďŚQâîLK-0đ˘‚uđĄ¨˛Dzän&amp;lt;ćO^cţYřŰŔtYa}E:0őůxbB?F|Qî&lt;/div&gt;&lt;div&gt;endstream&lt;/div&gt;&lt;/div&gt;&lt;div&gt;endobj&lt;/div&gt;&lt;div&gt;...&lt;/div&gt;&lt;div&gt;&lt;div&gt;xref&lt;/div&gt;&lt;div&gt;0 24&lt;/div&gt;&lt;div&gt;0000000000 65535 f&lt;/div&gt;&lt;div&gt;0000000017 00000 n&lt;/div&gt;&lt;div&gt;0000000365 00000 n&lt;/div&gt;&lt;div&gt;0000000421 00000 n&lt;/div&gt;&lt;div&gt;0000000684 00000 n&lt;/div&gt;&lt;div&gt;0000000895 00000 n&lt;/div&gt;&lt;div&gt;...&lt;/div&gt;&lt;div&gt;0000026177 00000 n&lt;/div&gt;&lt;div&gt;0000029530 00000 n&lt;/div&gt;&lt;div&gt;trailer&lt;/div&gt;&lt;div&gt;&amp;nbsp; &amp;nbsp;&amp;lt;&amp;lt; /Size 24&lt;/div&gt;&lt;div&gt;&amp;nbsp; &amp;nbsp; &amp;nbsp; /Root 1 0 R&lt;/div&gt;&lt;div&gt;&amp;nbsp; &amp;nbsp; &amp;nbsp; /Info 9 0 R&lt;/div&gt;&lt;div&gt;&amp;nbsp; &amp;nbsp; &amp;nbsp; /ID [ &amp;lt;4F704CDC2ADDC64E8798F1A20FFECB02&amp;gt; &amp;lt;4F704CDC2ADDC64E8798F1A20FFECB02&amp;gt; ]&lt;/div&gt;&lt;div&gt;&amp;nbsp; &amp;nbsp;&amp;gt;&amp;gt;&lt;/div&gt;&lt;div&gt;startxref&lt;/div&gt;&lt;div&gt;29575&lt;/div&gt;&lt;div&gt;%%EOF&lt;/div&gt;&lt;/div&gt;" style="rounded=0;html=1;align=left;fontFamily=Lucida Console;whiteSpace=wrap;" vertex="1" parent="1">
          <mxGeometry x="94" y="80" width="640" height="860" as="geometry" />
        </mxCell>
        <mxCell id="5Z7DFRyPFiuUS3gGfPdI-2" value="Vrstva bez názvu" parent="0" visible="0" />
        <mxCell id="5Z7DFRyPFiuUS3gGfPdI-3" value="&lt;div&gt;%PDF-1.7&lt;/div&gt;&lt;div&gt;%µµµµ&lt;/div&gt;&lt;div&gt;1 0 obj&lt;/div&gt;&lt;div&gt;&amp;lt;&amp;lt;/Type/Catalog/Pages 2 0 R/Lang(cs-CZ) /StructTreeRoot 10 0 R/MarkInfo&amp;lt;&amp;lt;/Marked true&amp;gt;&amp;gt;/OutputIntents[&amp;lt;&amp;lt;/Type/OutputIntent/S/GTS_PDFA1/OutputConditionIdentifier(sRGB) /RegistryName(http://www.color.org) /Info(Creator: HP&amp;nbsp; &amp;nbsp; &amp;nbsp;Manufacturer:IEC&amp;nbsp; &amp;nbsp; Model:sRGB) /DestOutputProfile 21 0 R&amp;gt;&amp;gt;] /Metadata 22 0 R/ViewerPreferences 23 0 R&amp;gt;&amp;gt;&lt;/div&gt;&lt;div&gt;endobj&lt;/div&gt;&lt;div&gt;2 0 obj&lt;/div&gt;&lt;div&gt;&amp;lt;&amp;lt;/Type/Pages/Count 1/Kids[ 3 0 R] &amp;gt;&amp;gt;&lt;/div&gt;&lt;div&gt;endobj&lt;/div&gt;&lt;div&gt;3 0 obj&lt;/div&gt;&lt;div&gt;&amp;lt;&amp;lt;/Type/Page/Parent 2 0 R/Resources&amp;lt;&amp;lt;/Font&amp;lt;&amp;lt;/F1 5 0 R&amp;gt;&amp;gt;/ExtGState&amp;lt;&amp;lt;/GS7 7 0 R/GS8 8 0 R&amp;gt;&amp;gt;/ProcSet[/PDF/Text/ImageB/ImageC/ImageI] &amp;gt;&amp;gt;/MediaBox[ 0 0 595.32 841.92] /Contents 4 0 R/Group&amp;lt;&amp;lt;/Type/Group/S/Transparency/CS/DeviceRGB&amp;gt;&amp;gt;/StructParents 0&amp;gt;&amp;gt;&lt;/div&gt;&lt;div&gt;endobj&lt;/div&gt;&lt;div&gt;4 0 obj&lt;/div&gt;&lt;div&gt;&amp;lt;&amp;lt;/Filter/FlateDecode/Length 137&amp;gt;&amp;gt;&lt;/div&gt;&lt;div&gt;stream&lt;/div&gt;&lt;div&gt;xś-Ś1&lt;/div&gt;&lt;div&gt;Â0÷ ď?|Ł:$/1mR(šÖ˘PPpGí¤ ţ0o;8úşÖcÜw¦AŰEĽDÉBŢ@PT…ÚZgTeńľ1ť7x2µ‰IďŚQâîLK-0đ˘‚uđĄ¨˛Dzän&amp;lt;ćO^cţYřŰŔtYa}E:0őůxbB?F|Qî&lt;/div&gt;&lt;div&gt;endstream&lt;/div&gt;&lt;div&gt;endobj&lt;/div&gt;" style="rounded=0;whiteSpace=wrap;html=1;fontFamily=Lucida Console;align=left;" vertex="1" parent="5Z7DFRyPFiuUS3gGfPdI-2">
          <mxGeometry x="100" y="390" width="630" height="500" as="geometry" />
        </mxCell>
        <mxCell id="5Z7DFRyPFiuUS3gGfPdI-4" value="Vrstva bez názvu" style="" parent="0" />
        <mxCell id="5Z7DFRyPFiuUS3gGfPdI-8" value="" style="rounded=0;html=1;align=left;fontFamily=Lucida Console;whiteSpace=wrap;strokeWidth=0.1;strokeColor=#B3B3B3;spacing=0;spacingLeft=6;spacingRight=6;fillColor=default;" vertex="1" parent="5Z7DFRyPFiuUS3gGfPdI-4">
          <mxGeometry x="40" y="60" width="620" height="360" as="geometry" />
        </mxCell>
        <mxCell id="5Z7DFRyPFiuUS3gGfPdI-9" value="" style="rounded=0;whiteSpace=wrap;html=1;fillColor=#d5e8d4;strokeColor=#82b366;opacity=75;strokeWidth=0.5;" vertex="1" parent="5Z7DFRyPFiuUS3gGfPdI-4">
          <mxGeometry x="40" y="318" width="620" height="102" as="geometry" />
        </mxCell>
        <mxCell id="5Z7DFRyPFiuUS3gGfPdI-7" value="" style="rounded=0;whiteSpace=wrap;html=1;fillColor=#f8cecc;strokeColor=#b85450;strokeWidth=0.5;opacity=75;" vertex="1" parent="5Z7DFRyPFiuUS3gGfPdI-4">
          <mxGeometry x="40" y="219" width="620" height="99" as="geometry" />
        </mxCell>
        <mxCell id="5Z7DFRyPFiuUS3gGfPdI-6" value="" style="rounded=0;whiteSpace=wrap;html=1;fillColor=#ffe6cc;strokeColor=#d79b00;strokeWidth=0.5;opacity=75;" vertex="1" parent="5Z7DFRyPFiuUS3gGfPdI-4">
          <mxGeometry x="40" y="89" width="620" height="130" as="geometry" />
        </mxCell>
        <mxCell id="5Z7DFRyPFiuUS3gGfPdI-10" value="" style="rounded=0;whiteSpace=wrap;html=1;fillColor=#dae8fc;strokeColor=#6c8ebf;strokeWidth=0.5;opacity=75;" vertex="1" parent="5Z7DFRyPFiuUS3gGfPdI-4">
          <mxGeometry x="40" y="60" width="620" height="29" as="geometry" />
        </mxCell>
        <mxCell id="5Z7DFRyPFiuUS3gGfPdI-11" value="Hlavička" style="text;html=1;strokeColor=none;fillColor=none;align=center;verticalAlign=middle;whiteSpace=wrap;rounded=0;fontFamily=Times New Roman;fontColor=#6C8EBF;fontStyle=1;fontSize=14;" vertex="1" parent="5Z7DFRyPFiuUS3gGfPdI-4">
          <mxGeometry x="525" y="60" width="90" height="30" as="geometry" />
        </mxCell>
        <mxCell id="5Z7DFRyPFiuUS3gGfPdI-14" value="Tělo" style="text;html=1;strokeColor=none;fillColor=none;align=center;verticalAlign=middle;whiteSpace=wrap;rounded=0;fontFamily=Times New Roman;fontColor=#D79B00;fontStyle=1;fontSize=14;" vertex="1" parent="5Z7DFRyPFiuUS3gGfPdI-4">
          <mxGeometry x="525" y="184" width="90" height="35" as="geometry" />
        </mxCell>
        <mxCell id="5Z7DFRyPFiuUS3gGfPdI-15" value="Tabulka křížových odkazů" style="text;html=1;strokeColor=none;fillColor=none;align=center;verticalAlign=middle;whiteSpace=wrap;rounded=0;fontFamily=Times New Roman;fontStyle=1;fontColor=#B85450;fontSize=14;" vertex="1" parent="5Z7DFRyPFiuUS3gGfPdI-4">
          <mxGeometry x="500" y="266" width="140" height="52" as="geometry" />
        </mxCell>
        <mxCell id="5Z7DFRyPFiuUS3gGfPdI-16" value="Patička" style="text;html=1;strokeColor=none;fillColor=none;align=center;verticalAlign=middle;whiteSpace=wrap;rounded=0;fontFamily=Times New Roman;fontStyle=1;fontColor=#82B366;fontSize=14;" vertex="1" parent="5Z7DFRyPFiuUS3gGfPdI-4">
          <mxGeometry x="525" y="385" width="90" height="35" as="geometry" />
        </mxCell>
        <mxCell id="5Z7DFRyPFiuUS3gGfPdI-5" value="&lt;div&gt;%PDF-1.7&lt;/div&gt;&lt;div&gt;%µµµµ&lt;/div&gt;&lt;div&gt;1 0 obj&lt;/div&gt;&lt;div&gt;&amp;nbsp; &amp;nbsp;&amp;lt;&amp;lt; /Type /Catalog&amp;nbsp;&lt;span style=&quot;background-color: initial;&quot;&gt;/Pages 2 0 R&amp;nbsp;&lt;/span&gt;&lt;span style=&quot;background-color: initial;&quot;&gt;/Lang (cs-CZ)&amp;nbsp;&lt;/span&gt;&lt;span style=&quot;background-color: initial;&quot;&gt;/Metadata 22 0 R&lt;/span&gt;&lt;/div&gt;&lt;div&gt;&amp;nbsp; &amp;nbsp; &amp;nbsp; ...&lt;/div&gt;&lt;div&gt;&lt;span style=&quot;background-color: initial;&quot;&gt;&amp;nbsp; &amp;nbsp;&amp;gt;&amp;gt;&lt;/span&gt;&lt;/div&gt;&lt;div&gt;endobj&lt;/div&gt;&lt;div&gt;&lt;div style=&quot;border-color: var(--border-color);&quot;&gt;2 0 obj&lt;/div&gt;&lt;div style=&quot;border-color: var(--border-color);&quot;&gt;&amp;nbsp; &amp;nbsp;&amp;lt;&amp;lt; /Type /Pages&amp;nbsp;&lt;span style=&quot;background-color: initial;&quot;&gt;/Count 1&amp;nbsp;&lt;/span&gt;&lt;span style=&quot;background-color: initial;&quot;&gt;/Kids [ 3 0 R]&amp;nbsp;&lt;/span&gt;&lt;span style=&quot;background-color: initial;&quot;&gt;&amp;gt;&amp;gt;&lt;/span&gt;&lt;/div&gt;&lt;div style=&quot;border-color: var(--border-color);&quot;&gt;endobj&lt;/div&gt;&lt;/div&gt;&lt;div&gt;...&lt;/div&gt;&lt;div&gt;&lt;div&gt;xref&lt;/div&gt;&lt;div&gt;0 24&lt;/div&gt;&lt;div&gt;0000000000 65535 f&lt;/div&gt;&lt;div&gt;0000000017 00000 n&lt;/div&gt;&lt;div&gt;0000000365 00000 n&lt;/div&gt;&lt;div&gt;...&lt;/div&gt;&lt;div&gt;0000029530 00000 n&lt;/div&gt;&lt;div&gt;trailer&lt;/div&gt;&lt;div&gt;&amp;nbsp; &amp;nbsp;&amp;lt;&amp;lt; /Size 24&amp;nbsp;&lt;span style=&quot;background-color: initial;&quot;&gt;/Root 1 0 R&amp;nbsp;&lt;/span&gt;&lt;span style=&quot;background-color: initial;&quot;&gt;/Info 9 0 R&lt;/span&gt;&lt;/div&gt;&lt;div&gt;&amp;nbsp; &amp;nbsp; &amp;nbsp; /ID [ &amp;lt;4F704CDC2ADDC64E8798F1A20FFECB02&amp;gt; &amp;lt;4F704CDC2ADDC64E8798F1A20FFECB02&amp;gt; ]&lt;/div&gt;&lt;div&gt;&amp;nbsp; &amp;nbsp;&amp;gt;&amp;gt;&lt;/div&gt;&lt;div&gt;startxref&lt;/div&gt;&lt;div&gt;29575&lt;/div&gt;&lt;div&gt;%%EOF&lt;/div&gt;&lt;/div&gt;" style="rounded=0;html=1;align=left;fontFamily=Lucida Console;whiteSpace=wrap;strokeWidth=0.1;strokeColor=#B3B3B3;spacing=0;spacingLeft=6;spacingRight=6;fillColor=none;" vertex="1" parent="5Z7DFRyPFiuUS3gGfPdI-4">
          <mxGeometry x="40" y="60" width="620" height="360" as="geometry" />
        </mxCell>
      </root>
    </mxGraphModel>
  </diagram>
</mxfile>
